<?xml version="1.0" standalone="no"?>
<!DOCTYPE svg PUBLIC "-//W3C//DTD SVG 20010904//EN"
 "http://www.w3.org/TR/2001/REC-SVG-20010904/DTD/svg10.dtd">
<svg version="1.0" xmlns="http://www.w3.org/2000/svg"
 width="1280.000000pt" height="1280.000000pt" viewBox="0 0 1280.000000 1280.000000"
 preserveAspectRatio="xMidYMid meet">
<metadata>
Created by potrace 1.14, written by Peter Selinger 2001-2017
</metadata>
<g transform="translate(0.000000,1280.000000) scale(0.100000,-0.100000)"
fill="#000000" stroke="none">
<path d="M6015 11714 c-216 -17 -234 -19 -385 -43 -69 -11 -143 -22 -165 -26
-164 -24 -426 -86 -610 -145 -33 -11 -91 -29 -130 -41 -82 -25 -377 -139 -452
-175 -28 -13 -55 -24 -58 -24 -13 0 -382 -189 -465 -238 -139 -82 -423 -266
-457 -296 -21 -19 -37 -30 -68 -50 -16 -11 -34 -23 -40 -28 -5 -4 -41 -33 -80
-64 -38 -30 -79 -63 -90 -71 -24 -19 -159 -139 -229 -203 -356 -325 -716 -769
-963 -1188 -112 -191 -283 -533 -343 -687 -4 -11 -17 -40 -28 -65 -53 -123
-155 -441 -212 -665 -42 -163 -40 -154 -50 -210 -6 -27 -13 -61 -16 -75 -2
-14 -7 -45 -10 -70 -3 -25 -9 -67 -14 -95 -6 -27 -12 -67 -16 -89 -3 -21 -7
-47 -9 -58 -2 -10 -12 -94 -21 -186 -29 -271 -25 -816 6 -1107 12 -106 62
-423 82 -515 22 -103 77 -325 98 -390 11 -36 34 -110 51 -165 17 -55 34 -109
39 -120 19 -49 70 -184 70 -189 0 -3 13 -33 29 -66 16 -33 28 -60 26 -60 -4 0
87 -199 116 -253 11 -20 17 -37 12 -37 -4 0 -3 -4 3 -8 7 -4 19 -23 27 -42 49
-108 316 -556 346 -580 3 -3 18 -23 32 -45 33 -51 191 -264 215 -290 20 -21
67 -75 148 -170 28 -33 125 -135 215 -228 91 -92 167 -170 170 -175 3 -4 22
-19 41 -34 19 -14 50 -40 68 -57 19 -17 73 -64 120 -104 48 -39 89 -74 92 -77
3 -3 21 -17 40 -30 19 -13 37 -27 40 -30 3 -3 21 -16 41 -28 19 -12 47 -32 60
-44 14 -13 74 -56 134 -95 61 -40 115 -76 121 -80 60 -45 468 -273 486 -273 5
0 26 -11 48 -25 22 -14 46 -25 53 -25 7 0 17 -4 22 -9 6 -5 55 -28 110 -51 55
-23 109 -45 120 -50 11 -5 56 -23 100 -40 44 -17 89 -35 100 -40 28 -12 173
-61 210 -70 17 -4 71 -20 120 -34 358 -107 772 -178 1190 -206 121 -8 678 -5
692 3 5 3 53 8 107 12 55 3 102 8 106 10 3 2 26 6 50 9 97 12 209 28 285 41
44 8 94 16 110 19 17 2 89 18 160 36 72 17 139 33 150 34 11 2 27 6 35 9 8 3
47 16 85 27 198 60 364 118 509 177 89 36 167 65 174 66 6 0 12 4 12 9 0 4 5
8 11 8 6 0 96 43 200 95 104 52 189 91 189 87 0 -4 4 -2 8 4 8 12 117 84 127
84 4 0 37 19 73 43 37 24 74 46 82 50 8 4 38 23 65 42 28 19 71 50 97 68 41
27 95 67 183 132 11 9 40 32 65 52 25 20 68 53 97 74 29 22 63 49 76 61 13 13
52 48 87 78 92 78 340 327 446 445 107 121 130 149 235 285 44 58 89 115 100
128 10 12 19 26 19 31 0 5 4 11 9 13 4 1 26 30 47 62 22 32 47 71 56 85 10 14
25 40 34 56 9 17 30 46 45 66 16 20 29 40 29 44 0 4 20 40 45 79 25 40 45 77
45 83 0 6 9 22 21 37 16 20 179 334 184 356 2 8 16 40 43 100 13 30 28 66 32
80 5 14 32 81 60 150 29 69 54 138 57 155 3 16 14 53 25 82 10 29 32 97 48
151 15 55 33 108 39 120 6 11 13 38 16 59 3 21 14 79 25 128 10 50 23 115 30
145 14 69 46 259 55 325 3 28 8 61 10 75 4 23 18 162 31 293 8 91 9 528 0 677
-14 260 -78 687 -146 970 -40 170 -161 543 -215 665 -7 17 -21 50 -31 75 -9
25 -30 74 -46 109 -17 35 -31 68 -32 75 -3 14 -120 247 -168 336 -20 36 -46
85 -59 109 -13 25 -28 50 -32 55 -4 6 -35 54 -69 106 -34 52 -85 131 -113 176
-42 65 -125 181 -173 239 -4 6 -19 26 -32 45 -14 19 -32 42 -40 50 -8 9 -33
38 -55 65 -188 229 -430 474 -681 687 -28 24 -66 56 -84 71 -19 16 -53 42 -77
59 -24 17 -43 35 -43 40 0 4 -7 8 -15 8 -8 0 -15 4 -15 9 0 5 -8 12 -18 15
-10 4 -27 14 -38 24 -10 10 -41 33 -69 52 -27 19 -59 42 -69 52 -11 10 -24 18
-29 18 -5 0 -34 18 -65 39 -64 44 -240 151 -248 151 -3 0 -19 9 -34 20 -63 45
-427 222 -590 287 -175 70 -344 133 -410 151 -19 6 -89 26 -155 46 -142 43
-380 98 -520 120 -55 9 -113 19 -130 21 -335 59 -828 79 -1210 49z"/>
</g>
</svg>
